<svg width="329" height="176" viewBox="0 0 329 176" fill="none" xmlns="http://www.w3.org/2000/svg">
<path d="M129.703 0.000976562C129.704 0.00148894 129.706 0.00204355 129.708 0.00292969C129.712 0.00468979 129.717 0.00752244 129.725 0.0107422C129.739 0.0173838 129.761 0.0273058 129.789 0.0400391C129.845 0.0655011 129.926 0.102675 130.029 0.152344C130.184 0.226717 130.39 0.329894 130.638 0.458008H329V141.458H168.17C168.127 149.89 166.642 155.484 164.138 159.304C161.587 163.194 158.023 165.177 154.037 166.469C152.049 167.113 149.946 167.589 147.808 168.042C145.663 168.496 143.487 168.927 141.315 169.485C136.98 170.601 132.724 172.212 129 175.458H0V34.458H129V35.458H1V174.458H128.631C132.452 171.231 136.77 169.622 141.066 168.517C143.265 167.951 145.473 167.514 147.601 167.063C149.735 166.611 151.794 166.145 153.729 165.518C157.588 164.266 160.92 162.388 163.302 158.755C165.693 155.108 167.172 149.626 167.172 141.081H168V140.458H328V1.45801H132.417C132.844 1.71666 133.307 2.007 133.788 2.33301C136.043 3.86016 138.78 6.14189 140.614 9.13379C142.458 12.1417 143.387 15.87 142 20.2266C140.62 24.5597 136.968 29.4505 129.801 34.8574L129.199 34.0586C136.282 28.7157 139.755 23.9812 141.047 19.9238C142.331 15.8899 141.48 12.4617 139.761 9.65723C138.032 6.83672 135.425 4.64959 133.228 3.16113C132.132 2.41917 131.146 1.85564 130.435 1.47852C130.421 1.47144 130.408 1.46496 130.395 1.45801H129V0.458008H129.5C129.692 0.0193076 129.7 0.000589106 129.701 0L129.703 0.000976562Z" fill="#E9CCCC"/>
</svg>
